{
    "asset" : {
        "generator" : "Khronos glTF Blender I/O v1.7.33",
        "version" : "2.0"
    },
    "scene" : 0,
    "scenes" : [
        {
            "name" : "Scene",
            "nodes" : [
                0
            ]
        }
    ],
    "nodes" : [
        {
            "mesh" : 0,
            "name" : "Orion_Lawlor_cap_100k"
        }
    ],
    "materials" : [
        {
            "doubleSided" : true,
            "name" : "LawlorSkin",
            "pbrMetallicRoughness" : {
                "metallicFactor" : 0
            }
        }
    ],
    "meshes" : [
        {
            "name" : "Orion_Lawlor_cap_100k.001",
            "primitives" : [
                {
                    "attributes" : {
                        "POSITION" : 0,
                        "NORMAL" : 1,
                        "COLOR_0" : 2
                    },
                    "indices" : 3,
                    "material" : 0
                }
            ]
        }
    ],
    "accessors" : [
        {
            "bufferView" : 0,
            "componentType" : 5126,
            "count" : 36913,
            "max" : [
                0.09995923936367035,
                0.14199399948120117,
                0.12996140122413635
            ],
            "min" : [
                -0.08908096700906754,
                -0.1381758749485016,
                -0.13574643433094025
            ],
            "type" : "VEC3"
        },
        {
            "bufferView" : 1,
            "componentType" : 5126,
            "count" : 36913,
            "type" : "VEC3"
        },
        {
            "bufferView" : 2,
            "componentType" : 5123,
            "count" : 36913,
            "normalized" : true,
            "type" : "VEC4"
        },
        {
            "bufferView" : 3,
            "componentType" : 5123,
            "count" : 220377,
            "type" : "SCALAR"
        }
    ],
    "bufferViews" : [
        {
            "buffer" : 0,
            "byteLength" : 442956,
            "byteOffset" : 0
        },
        {
            "buffer" : 0,
            "byteLength" : 442956,
            "byteOffset" : 442956
        },
        {
            "buffer" : 0,
            "byteLength" : 295304,
            "byteOffset" : 885912
        },
        {
            "buffer" : 0,
            "byteLength" : 440754,
            "byteOffset" : 1181216
        }
    ],
    "buffers" : [
        {
            "byteLength" : 1621972,
            "uri" : "data:application/octet-stream;base64,"
        }
    ]
}
