{
    "asset" : {
        "generator" : "Khronos glTF Blender I/O v1.2.75",
        "version" : "2.0"
    },
    "scene" : 0,
    "scenes" : [
        {
            "name" : "Scene",
            "nodes" : [
                0
            ]
        }
    ],
    "nodes" : [
        {
            "mesh" : 0,
            "name" : "Axes"
        }
    ],
    "materials" : [
        {
            "doubleSided" : true,
            "emissiveFactor" : [
                0.10000000149011612,
                0,
                0
            ],
            "name" : "Xaxis",
            "pbrMetallicRoughness" : {
                "baseColorFactor" : [
                    0.8000000715255737,
                    0,
                    0.0007526230183430016,
                    1
                ],
                "metallicFactor" : 0,
                "roughnessFactor" : 0.5
            }
        },
        {
            "doubleSided" : true,
            "emissiveFactor" : [
                0,
                0.10000000149011612,
                0
            ],
            "name" : "Yaxis",
            "pbrMetallicRoughness" : {
                "baseColorFactor" : [
                    0,
                    0.8000000715255737,
                    0.002136578317731619,
                    1
                ],
                "metallicFactor" : 0,
                "roughnessFactor" : 0.5
            }
        },
        {
            "doubleSided" : true,
            "emissiveFactor" : [
                0,
                0,
                0.10000000149011612
            ],
            "name" : "Zaxis",
            "pbrMetallicRoughness" : {
                "baseColorFactor" : [
                    0,
                    0.0006193240405991673,
                    0.8000000715255737,
                    1
                ],
                "metallicFactor" : 0,
                "roughnessFactor" : 0.5
            }
        },
        {
            "doubleSided" : true,
            "emissiveFactor" : [
                0,
                0,
                0
            ],
            "name" : "Waxis",
            "pbrMetallicRoughness" : {
                "baseColorFactor" : [
                    0.800000011920929,
                    0.800000011920929,
                    0.800000011920929,
                    1
                ],
                "metallicFactor" : 0,
                "roughnessFactor" : 0.5
            }
        }
    ],
    "meshes" : [
        {
            "name" : "Axes",
            "primitives" : [
                {
                    "attributes" : {
                        "POSITION" : 0,
                        "NORMAL" : 1,
                        "TEXCOORD_0" : 2
                    },
                    "indices" : 3,
                    "material" : 0
                },
                {
                    "attributes" : {
                        "POSITION" : 4,
                        "NORMAL" : 5,
                        "TEXCOORD_0" : 6
                    },
                    "indices" : 7,
                    "material" : 1
                },
                {
                    "attributes" : {
                        "POSITION" : 8,
                        "NORMAL" : 9,
                        "TEXCOORD_0" : 10
                    },
                    "indices" : 11,
                    "material" : 2
                },
                {
                    "attributes" : {
                        "POSITION" : 12,
                        "NORMAL" : 13,
                        "TEXCOORD_0" : 14
                    },
                    "indices" : 11,
                    "material" : 3
                }
            ]
        }
    ],
    "accessors" : [
        {
            "bufferView" : 0,
            "componentType" : 5126,
            "count" : 112,
            "max" : [
                1,
                0.108366958796978,
                0.1083669364452362
            ],
            "min" : [
                0,
                -0.108366958796978,
                -0.10836698114871979
            ],
            "type" : "VEC3"
        },
        {
            "bufferView" : 1,
            "componentType" : 5126,
            "count" : 112,
            "type" : "VEC3"
        },
        {
            "bufferView" : 2,
            "componentType" : 5126,
            "count" : 112,
            "type" : "VEC2"
        },
        {
            "bufferView" : 3,
            "componentType" : 5123,
            "count" : 144,
            "type" : "SCALAR"
        },
        {
            "bufferView" : 4,
            "componentType" : 5126,
            "count" : 112,
            "max" : [
                1,
                0.108366958796978,
                0.1083669364452362
            ],
            "min" : [
                0,
                -0.108366958796978,
                -0.10836698114871979
            ],
            "type" : "VEC3"
        },
        {
            "bufferView" : 5,
            "componentType" : 5126,
            "count" : 112,
            "type" : "VEC3"
        },
        {
            "bufferView" : 6,
            "componentType" : 5126,
            "count" : 112,
            "type" : "VEC2"
        },
        {
            "bufferView" : 7,
            "componentType" : 5123,
            "count" : 144,
            "type" : "SCALAR"
        },
        {
            "bufferView" : 8,
            "componentType" : 5126,
            "count" : 112,
            "max" : [
                1,
                0.10842113941907883,
                0.10842111706733704
            ],
            "min" : [
                0,
                -0.10842113941907883,
                -0.10842116177082062
            ],
            "type" : "VEC3"
        },
        {
            "bufferView" : 9,
            "componentType" : 5126,
            "count" : 112,
            "type" : "VEC3"
        },
        {
            "bufferView" : 10,
            "componentType" : 5126,
            "count" : 112,
            "type" : "VEC2"
        },
        {
            "bufferView" : 11,
            "componentType" : 5123,
            "count" : 144,
            "type" : "SCALAR"
        },
        {
            "bufferView" : 12,
            "componentType" : 5126,
            "count" : 112,
            "max" : [
                1,
                0.10733693093061447,
                0.10733690857887268
            ],
            "min" : [
                0,
                -0.10733693093061447,
                -0.10733695328235626
            ],
            "type" : "VEC3"
        },
        {
            "bufferView" : 13,
            "componentType" : 5126,
            "count" : 112,
            "type" : "VEC3"
        },
        {
            "bufferView" : 14,
            "componentType" : 5126,
            "count" : 112,
            "type" : "VEC2"
        }
    ],
    "bufferViews" : [
        {
            "buffer" : 0,
            "byteLength" : 1344,
            "byteOffset" : 0
        },
        {
            "buffer" : 0,
            "byteLength" : 1344,
            "byteOffset" : 1344
        },
        {
            "buffer" : 0,
            "byteLength" : 896,
            "byteOffset" : 2688
        },
        {
            "buffer" : 0,
            "byteLength" : 288,
            "byteOffset" : 3584
        },
        {
            "buffer" : 0,
            "byteLength" : 1344,
            "byteOffset" : 3872
        },
        {
            "buffer" : 0,
            "byteLength" : 1344,
            "byteOffset" : 5216
        },
        {
            "buffer" : 0,
            "byteLength" : 896,
            "byteOffset" : 6560
        },
        {
            "buffer" : 0,
            "byteLength" : 288,
            "byteOffset" : 7456
        },
        {
            "buffer" : 0,
            "byteLength" : 1344,
            "byteOffset" : 7744
        },
        {
            "buffer" : 0,
            "byteLength" : 1344,
            "byteOffset" : 9088
        },
        {
            "buffer" : 0,
            "byteLength" : 896,
            "byteOffset" : 10432
        },
        {
            "buffer" : 0,
            "byteLength" : 288,
            "byteOffset" : 11328
        },
        {
            "buffer" : 0,
            "byteLength" : 1344,
            "byteOffset" : 11616
        },
        {
            "buffer" : 0,
            "byteLength" : 1344,
            "byteOffset" : 12960
        },
        {
            "buffer" : 0,
            "byteLength" : 896,
            "byteOffset" : 14304
        }
    ],
    "buffers" : [
        {
            "byteLength" : 15200,
            "uri" : "data:application/octet-stream;base64,"
        }
    ]
}
